<?xml version="1.0" encoding="UTF-8"?>
<svg width="1024px" height="1024px" viewBox="0 0 1024 1024" version="1.1" xmlns="http://www.w3.org/2000/svg" xmlns:xlink="http://www.w3.org/1999/xlink">
    <title>Group 2</title>
    <g id="Page-1" stroke="none" stroke-width="1" fill="none" fill-rule="evenodd">
        <g id="Group-2">
            <rect id="Rectangle" fill="#FFFFFF" x="0" y="0" width="1024" height="1024"></rect>
            <g id="Group" transform="translate(179.000000, 302.000000)" fill="#FFC46A" fill-rule="nonzero">
                <path d="M580.098388,173.193452 C627.92523,173.193452 666.69573,134.422952 666.69573,86.596849 C666.69573,38.7707462 627.92523,0 580.098388,0 C532.272778,0 493.502278,38.7707462 493.502278,86.596849 C493.502278,134.422952 532.272778,173.193452 580.098388,173.193452 Z" id="Path"></path>
                <path d="M86.5969721,419.944591 C134.422952,419.944591 173.193452,381.174091 173.193452,333.34848 C173.193452,285.521639 134.422952,246.751139 86.5969721,246.751139 C38.7707462,246.751139 1.39984614e-13,285.521639 1.39984614e-13,333.34848 C1.39984614e-13,381.174091 38.7707462,419.944591 86.5969721,419.944591 Z" id="Path"></path>
                <path d="M666.696961,333.347249 C666.696961,381.160546 627.912917,419.944591 580.100851,419.944591 C532.288785,419.944591 493.503509,381.160546 493.503509,333.347249 C493.503509,262.800134 447.864719,202.895297 384.504805,181.608277 C375.588834,178.821805 343.212566,180.884262 343.212566,210.02832 C343.212566,237.277381 363.217785,251.431377 369.682203,254.720227 C399.439457,268.428487 420.057872,298.519428 420.057872,333.40389 C420.057872,381.215956 381.272596,420 333.46053,420 C285.648465,420 246.86442,381.215956 246.86442,333.40389 C246.86442,244.968191 175.14509,173.305502 86.7655395,173.305502 C38.9533506,173.305502 0.168644964,134.520226 0.168644964,86.7082832 C0.168644964,38.8960944 38.9533506,0.111377733 86.7655395,0.111377733 C134.578098,0.111377733 173.362142,38.8960944 173.362142,86.7082832 C173.362142,157.311916 219.057573,217.272162 282.528306,238.559182 C291.611736,241.290245 323.653085,239.060329 323.653085,210.08373 C323.653085,182.834669 303.647867,168.736082 297.183449,165.448463 C297.07263,165.391823 297.01599,165.336414 296.905171,165.336414 C267.315376,151.572744 246.80778,121.536473 246.80778,86.7639388 C246.80778,38.9517499 285.593055,0.167105817 333.405121,0.167105817 C381.217187,0.167105817 420.002463,38.9517499 420.002463,86.7639388 C420.002463,175.199268 491.665152,246.861958 580.100851,246.861958 C627.912917,246.69573 666.696961,285.479774 666.696961,333.347249 Z" id="Path"></path>
            </g>
        </g>
    </g>
</svg>